# xmcd
#
# Track frame offsets:
#	150
#	13377
#	24135
#	40290
#	50562
#	64527
#	76307
#	89552
#	102032
#	116210
#	127897
#	149500
#	167555
#	183032
#	198172
#	210947
#	220955
#	235190
#	247015
#	260402
#	272932
#	286072
#	299867
#	312085
#	322317
#	333735
#
# Disc length: 4616
#
# Revision: 4
# Processed by: cddbd v1.5.1PL0 Copyright (c) Steve Scherf et al.
# Submitted via: audiograbber 1.82.02
# Normalized: r3:DSETVAR1
#
DISCID=8a12061a
DTITLE=Various Artist - Shades Of Country 2
DYEAR=1994
DGENRE=Country
TTITLE0=Charlie Rich - The Most Beautiful Girl In The World
TTITLE1=Johnny Tillotson - Send Me The Pillow You Dream On
TTITLE2=Randy Vanwarmer - Just When I Needed You Most
TTITLE3=Don Gibson - Sea of Heartbreak
TTITLE4=George Jones - A Good Year For The Roses
TTITLE5=Sandy Posey - Single Girl
TTITLE6=Kenny Rogers - Ruby Don't Take Your Love To Town
TTITLE7=Bobby Bare - 500 Miles Away From Home
TTITLE8=Roger Miller - My Elusive Dreams
TTITLE9=Patsy Cline - Walkin' After Midnight
TTITLE10=Bobby Goldsboro - Summer (The First Time)
TTITLE11=Rick Nelson - Garden Party
TTITLE12=Bellamy Brothers - Kids Of The Baby Boom
TTITLE13=Don Fardon - Indian Reservation
TTITLE14=Janie Fricke - He's A Heartache
TTITLE15=Roy Orbison - Oobie Doobie
TTITLE16=Roy Clarke - The Tips Of My Fingers
TTITLE17=Skeeter Davis - The End Of The World
TTITLE18=Mel McDaniel - Baby's Got Her Blue Jeans On
TTITLE19=Jerry Wallace - In The Misty Moonlight
TTITLE20=Crystal Gayle - Talking In Your Sleep
TTITLE21=Charley Pride - Can't Stop The Mississipi
TTITLE22=Billie Jo Spears - Misty Blue
TTITLE23=Leroy Van Dyke - Walk On By
TTITLE24=Jim Croce - I'll Have To Say I Love You In A Song
TTITLE25=Johnny Cash - I Walk The Line
EXTD=
EXTT0=
EXTT1=
EXTT2=
EXTT3=
EXTT4=
EXTT5=
EXTT6=
EXTT7=
EXTT8=
EXTT9=
EXTT10=
EXTT11=
EXTT12=
EXTT13=
EXTT14=
EXTT15=
EXTT16=
EXTT17=
EXTT18=
EXTT19=
EXTT20=
EXTT21=
EXTT22=
EXTT23=
EXTT24=
EXTT25=
PLAYORDER=
